<svg width="525" height="395" viewBox="0 0 525 395" fill="none" xmlns="http://www.w3.org/2000/svg">
<path d="M257.137 390.721L14.9353 247.733C7.22474 243.402 0.614122 236.305 8.12928 231.649L251.192 91.7041C254.836 89.4444 260.371 87.9636 264.086 90.1245L518.293 237.531C526.003 242.002 527.386 254.461 519.704 258.974L289.055 390.497C284.213 393.303 278.723 394.799 273.126 394.838C267.529 394.877 262.018 393.458 257.137 390.721V390.721Z" fill="#5B36A0"/>
<path d="M257.137 384.122L14.9353 241.129C7.22474 236.796 0.614122 229.699 8.12928 225.044L251.192 85.1005C254.836 82.843 260.371 81.3622 264.086 83.5209L518.293 230.928C526.003 235.401 527.386 247.858 519.704 252.373L289.055 383.893C284.213 386.699 278.723 388.196 273.126 388.235C267.529 388.275 262.018 386.856 257.137 384.119V384.122Z" fill="#6862E6"/>
<path style="mix-blend-mode:multiply" opacity="0.25" d="M277.107 195.461L229.316 222.705C229.316 222.705 302.937 267.585 317.992 273.906L345.517 234.4" fill="url(#paint0_linear)"/>
<path style="mix-blend-mode:multiply" opacity="0.25" d="M260.597 326.164L212.793 298.975L164.988 326.219C164.988 326.219 189.885 341.4 213.684 355.34C228.793 344.66 243.918 333.867 260.597 326.162V326.164Z" fill="url(#paint1_linear)"/>
<path style="mix-blend-mode:multiply" opacity="0.46" d="M157.603 158.271L127.281 175.554C127.281 175.554 129.849 191.398 144.906 197.719L184.605 172.323" fill="url(#paint2_linear)"/>
<path d="M172.444 175.554C182.544 175.554 190.732 169.793 190.732 162.687C190.732 155.581 182.544 149.82 172.444 149.82C162.344 149.82 154.156 155.581 154.156 162.687C154.156 169.793 162.344 175.554 172.444 175.554Z" fill="#68E1FD"/>
<path d="M172.431 160.697C179.997 160.697 186.131 158.19 186.131 155.096C186.131 152.003 179.997 149.495 172.431 149.495C164.865 149.495 158.731 152.003 158.731 155.096C158.731 158.19 164.865 160.697 172.431 160.697Z" fill="#974C26"/>
<path d="M171.937 145.757C171.937 143.232 171.851 140.704 171.654 138.179C171.597 137.521 171.535 136.867 171.469 136.218L171.329 134.934C171.329 134.555 171.131 133.524 171.131 133.623C171.046 133.105 170.956 132.591 170.863 132.087C169.369 123.513 166.036 115.364 161.091 108.2C159.23 112.624 158.302 117.383 158.364 122.181C158.364 123.592 158.476 125.003 158.591 126.328V127.162C159.147 130.435 159.998 133.651 161.133 136.771C161.942 139.045 162.929 141.252 164.084 143.372C165.33 145.759 166.682 148.089 168.137 150.355C169.267 152.132 170.341 153.712 171.43 155.223C171.768 152.077 171.922 148.916 171.935 145.757H171.937ZM164.749 117.355C164.821 117.03 164.821 116.693 164.749 116.368C165.096 116.725 165.44 117.092 165.781 117.469C165.441 117.372 165.087 117.334 164.734 117.355H164.749Z" fill="#999A1C"/>
<path d="M176.64 147.703C178.051 145.575 179.296 143.469 180.495 141.172C180.804 140.588 181.107 140.005 181.399 139.421L181.977 138.249L182.528 137.036L183.136 135.626C186.521 127.6 188.125 118.936 187.839 110.231C183.869 112.948 180.503 116.453 177.953 120.529C177.22 121.705 176.537 122.911 175.904 124.143L175.623 124.663L175.551 124.889C175.283 125.525 175.015 126.161 174.76 126.808C173.824 129.267 173.064 131.789 172.488 134.355C171.938 136.708 171.574 139.1 171.399 141.51C171.15 144.188 171.027 146.876 171.032 149.565C171.032 151.667 171.032 153.587 171.16 155.434C173.037 152.937 174.929 150.371 176.64 147.703V147.703ZM185.959 119.924C186.181 119.676 186.346 119.382 186.44 119.062C186.543 119.551 186.633 120.023 186.708 120.475C186.489 120.255 186.236 120.069 185.962 119.924H185.959Z" fill="#999A1C"/>
<path d="M176.541 153.995C177.961 153.291 179.373 152.529 180.778 151.711L181.836 151.062L182.528 150.623L183.206 150.145L183.997 149.565C188.412 146.328 192.073 142.174 194.73 137.389C191.716 137.583 188.774 138.394 186.087 139.774C185.31 140.169 184.561 140.608 183.812 141.058L183.49 141.255L183.375 141.354L182.33 142.13C181.028 143.155 179.801 144.274 178.659 145.474C177.603 146.566 176.635 147.742 175.761 148.986C174.781 150.371 173.84 151.783 172.938 153.22C172.262 154.348 171.654 155.406 171.116 156.437C172.938 155.675 174.76 154.883 176.539 153.995H176.541ZM190.548 142.003C190.748 141.941 190.932 141.836 191.086 141.694C190.983 141.994 190.87 142.29 190.748 142.582C190.711 142.385 190.644 142.195 190.55 142.018V142.003H190.548ZM171.937 145.757C171.937 143.232 171.851 140.704 171.654 138.179C171.597 137.521 171.535 136.867 171.469 136.218L171.329 134.934C171.329 134.555 171.131 133.524 171.131 133.623C171.046 133.105 170.956 132.591 170.863 132.087C169.369 123.513 166.036 115.364 161.091 108.2C159.23 112.624 158.302 117.383 158.364 122.181C158.364 123.592 158.476 125.003 158.591 126.328V127.162C159.147 130.435 159.998 133.651 161.133 136.771C161.942 139.045 162.929 141.252 164.084 143.372C165.33 145.759 166.682 148.089 168.137 150.355C169.267 152.132 170.341 153.712 171.43 155.223C171.768 152.077 171.922 148.916 171.935 145.757H171.937ZM164.749 117.355C164.821 117.03 164.821 116.693 164.749 116.368C165.096 116.725 165.44 117.092 165.781 117.469C165.441 117.372 165.087 117.334 164.734 117.355H164.749Z" fill="#999A1C"/>
<path d="M176.64 147.703C178.051 145.575 179.296 143.469 180.495 141.172C180.804 140.588 181.107 140.005 181.399 139.421L181.977 138.249L182.528 137.036L183.136 135.626C186.521 127.6 188.125 118.936 187.839 110.231C183.869 112.948 180.503 116.453 177.953 120.529C177.22 121.705 176.537 122.911 175.904 124.143L175.623 124.663L175.551 124.889C175.283 125.525 175.015 126.161 174.76 126.808C173.824 129.267 173.064 131.789 172.488 134.355C171.938 136.708 171.574 139.1 171.399 141.51C171.15 144.188 171.027 146.876 171.032 149.565C171.032 151.667 171.032 153.587 171.16 155.434C173.037 152.937 174.929 150.371 176.64 147.703V147.703ZM185.959 119.924C186.181 119.676 186.346 119.382 186.44 119.062C186.543 119.551 186.633 120.023 186.708 120.475C186.489 120.255 186.236 120.069 185.962 119.924H185.959Z" fill="#999A1C"/>
<path d="M176.541 153.995C177.961 153.291 179.373 152.529 180.778 151.711L181.836 151.062L182.528 150.623L183.206 150.145L183.997 149.565C188.412 146.328 192.073 142.174 194.73 137.389C191.716 137.583 188.774 138.394 186.087 139.774C185.31 140.169 184.561 140.608 183.812 141.058L183.49 141.255L183.375 141.354L182.33 142.13C181.028 143.155 179.801 144.274 178.659 145.474C177.603 146.566 176.635 147.742 175.761 148.986C174.781 150.371 173.84 151.783 172.938 153.22C172.262 154.348 171.654 155.406 171.116 156.437C172.938 155.675 174.76 154.883 176.539 153.995H176.541ZM190.548 142.003C190.748 141.941 190.932 141.835 191.086 141.694C190.983 141.994 190.87 142.29 190.748 142.582C190.711 142.385 190.644 142.195 190.55 142.018V142.003H190.548Z" fill="#999A1C"/>
<path d="M296.087 184.823L269.636 197.521C268.64 198 267.793 198.741 267.186 199.664C266.58 200.588 266.236 201.659 266.192 202.762C266.149 203.866 266.407 204.961 266.939 205.929C267.471 206.897 268.257 207.703 269.212 208.258L331.902 244.799C333.258 245.591 334.866 245.828 336.392 245.463C337.919 245.097 339.245 244.157 340.094 242.838L355.33 219.164" fill="#A1482D"/>
<path d="M439.956 123.577L229.035 2.1588C227.588 1.32762 225.948 0.891165 224.279 0.893196C222.61 0.895226 220.971 1.33567 219.526 2.17036C218.081 3.00506 216.881 4.20467 216.047 5.64891C215.212 7.09315 214.772 8.73126 214.771 10.399V136.712C214.771 139.535 216.277 142.144 218.723 143.556L443.585 273.228C444.36 273.676 445.24 273.912 446.136 273.912C447.032 273.913 447.913 273.677 448.688 273.229C449.464 272.782 450.109 272.138 450.556 271.362C451.004 270.586 451.239 269.707 451.238 268.811V143.019C451.235 139.073 450.19 135.197 448.208 131.784C446.227 128.37 443.379 125.539 439.953 123.577H439.956Z" fill="#F47B56"/>
<path d="M229.048 11.7109L433.6 129.276C435.784 130.533 437.598 132.342 438.86 134.522C440.122 136.702 440.787 139.175 440.788 141.694V236.375C440.786 237.281 440.547 238.171 440.093 238.956C439.64 239.74 438.988 240.392 438.203 240.847C437.418 241.301 436.528 241.541 435.621 241.544C434.714 241.546 433.823 241.311 433.035 240.861L224.429 121.335C223.648 120.887 222.999 120.242 222.548 119.464C222.097 118.686 221.86 117.802 221.86 116.903V15.8727C221.86 15.0318 222.081 14.2055 222.501 13.4768C222.921 12.7481 223.525 12.1426 224.253 11.721C224.982 11.2994 225.808 11.0765 226.649 11.0747C227.491 11.073 228.318 11.2924 229.048 11.7109V11.7109Z" fill="white"/>
<path d="M315.115 190.297C317.527 189.833 319.053 187.224 318.522 184.47C317.991 181.715 315.605 179.859 313.193 180.323C310.781 180.787 309.255 183.396 309.786 186.151C310.317 188.905 312.703 190.762 315.115 190.297Z" fill="#AB643C"/>
<path opacity="0.32" d="M284.028 140.169L379.086 197.225L426.045 169.953L342.142 121.166" fill="url(#paint3_linear)"/>
<path d="M401.499 128.811L298.729 66.2112C298.178 65.8936 297.553 65.7289 296.918 65.7343C296.283 65.7397 295.66 65.9149 295.116 66.2418C294.571 66.5686 294.124 67.0352 293.821 67.5931C293.517 68.151 293.369 68.7798 293.391 69.4143V105.08C293.387 105.726 293.55 106.361 293.864 106.925C294.178 107.49 294.633 107.963 295.185 108.299L397.941 169.574C398.481 169.88 399.092 170.039 399.713 170.035C400.334 170.031 400.944 169.864 401.48 169.551C402.016 169.238 402.461 168.789 402.769 168.25C403.077 167.711 403.238 167.101 403.236 166.48L403.772 133.228C403.811 132.357 403.623 131.492 403.224 130.717C402.825 129.942 402.231 129.285 401.499 128.811V128.811Z" fill="#E2AC00"/>
<path d="M376.912 147.165C380.598 152.317 387.079 153.756 391.374 150.397C395.666 147.04 396.16 140.141 392.474 135.005C388.787 129.871 382.306 128.416 378.012 131.775C373.72 135.132 373.226 142.018 376.912 147.168V147.165Z" fill="white"/>
<path d="M366.828 122.449L324.912 97.2371C324.553 97.0725 324.145 97.0471 323.768 97.1657C323.391 97.2842 323.071 97.5383 322.871 97.8788C322.671 98.2193 322.604 98.6219 322.684 99.0088C322.763 99.3956 322.984 99.7391 323.303 99.9728L365.219 125.185C365.578 125.349 365.986 125.375 366.363 125.256C366.74 125.138 367.059 124.884 367.26 124.543C367.46 124.203 367.527 123.8 367.447 123.413C367.367 123.026 367.147 122.683 366.828 122.449V122.449ZM365.105 132.692L307.33 97.9413C306.976 97.817 306.59 97.8214 306.239 97.9536C305.888 98.0858 305.594 98.3374 305.41 98.6642C305.226 98.991 305.164 99.3721 305.233 99.7406C305.302 100.109 305.499 100.441 305.789 100.679L363.495 135.443C363.855 135.611 364.265 135.638 364.644 135.52C365.022 135.402 365.344 135.147 365.545 134.805C365.746 134.463 365.812 134.058 365.731 133.67C365.649 133.282 365.426 132.938 365.105 132.705V132.692Z" fill="#F2F2F2"/>
<path d="M380.994 135.724L278.28 73.1395C277.73 72.8213 277.104 72.6562 276.469 72.6613C275.833 72.6663 275.21 72.8415 274.665 73.1684C274.12 73.4953 273.673 73.9622 273.37 74.5204C273.066 75.0786 272.918 75.7078 272.94 76.3426V111.993C272.925 113.309 273.599 114.536 274.719 115.225L377.476 176.5C378.022 176.813 378.641 176.975 379.27 176.97C379.899 176.966 380.516 176.794 381.056 176.472C381.597 176.15 382.042 175.691 382.346 175.141C382.651 174.59 382.803 173.969 382.787 173.34L383.323 140.083C383.347 139.217 383.144 138.36 382.736 137.596C382.327 136.831 381.727 136.186 380.994 135.724Z" fill="#F47B56"/>
<path d="M356.406 154.08C360.092 159.229 366.574 160.669 370.868 157.312C375.16 153.955 375.654 147.053 371.968 141.918C368.282 136.784 361.801 135.329 357.506 138.688C353.214 142.045 352.72 148.931 356.406 154.08Z" fill="white"/>
<path d="M346.322 129.362L304.375 104.15C304.015 103.983 303.606 103.955 303.227 104.074C302.848 104.192 302.527 104.446 302.326 104.788C302.125 105.13 302.059 105.535 302.14 105.923C302.221 106.311 302.445 106.655 302.766 106.888L344.682 132.1C345.042 132.267 345.452 132.294 345.83 132.176C346.209 132.058 346.531 131.804 346.732 131.462C346.933 131.12 346.999 130.715 346.918 130.327C346.836 129.939 346.613 129.595 346.292 129.362H346.32H346.322ZM344.586 139.675L286.822 104.87C286.463 104.702 286.053 104.675 285.674 104.793C285.295 104.911 284.974 105.166 284.773 105.508C284.572 105.85 284.506 106.255 284.587 106.643C284.668 107.031 284.892 107.375 285.213 107.608L342.99 142.356C343.35 142.524 343.759 142.551 344.138 142.433C344.517 142.315 344.838 142.06 345.039 141.718C345.24 141.376 345.306 140.971 345.225 140.583C345.144 140.195 344.92 139.851 344.599 139.618L344.586 139.675Z" fill="#F2F2F2"/>
<path d="M355.218 139.93L252.478 77.343C251.928 77.0248 251.303 76.8597 250.667 76.8647C250.032 76.8698 249.409 77.0449 248.864 77.3719C248.319 77.6988 247.871 78.1656 247.568 78.7238C247.265 79.282 247.117 79.9112 247.139 80.546V116.199C247.135 116.844 247.298 117.479 247.612 118.043C247.926 118.606 248.381 119.079 248.933 119.415L351.688 180.69C352.234 181.003 352.853 181.166 353.482 181.161C354.111 181.156 354.727 180.984 355.268 180.662C355.809 180.341 356.254 179.881 356.558 179.331C356.862 178.781 357.014 178.159 356.999 177.531L357.535 144.274C357.581 142.519 356.7 140.871 355.218 139.93V139.93Z" fill="#68E1FD"/>
<path d="M355.218 139.93L252.478 77.343C251.928 77.0248 251.303 76.8597 250.667 76.8647C250.032 76.8698 249.409 77.0449 248.864 77.3719C248.319 77.6988 247.871 78.1656 247.568 78.7238C247.265 79.282 247.117 79.9112 247.139 80.546V116.199C247.135 116.844 247.298 117.479 247.612 118.043C247.926 118.606 248.381 119.079 248.933 119.415L351.688 180.69C352.234 181.003 352.853 181.166 353.482 181.161C354.111 181.156 354.727 180.984 355.268 180.662C355.809 180.341 356.254 179.881 356.558 179.331C356.862 178.781 357.014 178.159 356.999 177.531L357.535 144.274C357.581 142.519 356.7 140.871 355.218 139.93V139.93Z" fill="#68E1FD"/>
<path d="M330.618 158.284C334.304 163.435 340.785 164.874 345.08 161.515C349.372 158.159 349.866 151.259 346.18 146.123C342.496 140.99 336.012 139.535 331.72 142.892C327.426 146.248 326.973 153.137 330.618 158.284V158.284Z" fill="white"/>
<path d="M320.534 133.565L278.605 108.356C278.245 108.186 277.834 108.158 277.454 108.275C277.074 108.393 276.751 108.648 276.55 108.99C276.348 109.333 276.282 109.739 276.364 110.128C276.446 110.517 276.67 110.861 276.993 111.094L318.909 136.306C319.27 136.475 319.68 136.504 320.06 136.386C320.44 136.269 320.763 136.014 320.965 135.671C321.166 135.328 321.233 134.922 321.151 134.533C321.069 134.144 320.844 133.8 320.521 133.568H320.534V133.565ZM318.797 143.824L261.021 109.073C260.661 108.906 260.252 108.879 259.873 108.997C259.494 109.115 259.173 109.369 258.972 109.711C258.771 110.053 258.704 110.458 258.786 110.846C258.867 111.234 259.09 111.578 259.412 111.811L317.186 146.562C317.546 146.731 317.956 146.76 318.337 146.643C318.717 146.525 319.039 146.27 319.241 145.927C319.443 145.585 319.509 145.179 319.427 144.79C319.345 144.401 319.12 144.056 318.797 143.824Z" fill="#F2F2F2"/>
<path d="M220.376 136.431C213.737 142.139 208.716 149.491 205.815 157.749C200.704 171.855 213.484 194.911 213.484 194.911L233.369 179.181" fill="#FF8F6F"/>
<path d="M218.231 322.961L212.834 319.984L214.248 312.281C214.248 312.281 222.284 313.042 222.989 315.892" fill="#003B94"/>
<path d="M220.207 322.847C221.421 322.101 222.692 321.436 223.95 320.773C227.07 319.067 231.575 317.303 233.496 314.1C233.89 313.452 234.076 312.7 234.031 311.944C233.985 311.188 233.71 310.463 233.242 309.868C230.418 306.454 224.231 312.068 221.07 308.288C220.448 307.54 220.15 295.673 220.15 295.673L208.119 298.92C208.119 298.92 206.086 322.763 206.312 324.231C206.536 325.697 210.674 327.052 210.674 327.052C211.907 326.791 213.084 326.313 214.15 325.642C215.405 324.725 214.262 313.536 215.871 315.102C217.482 316.669 218.187 322.792 218.187 322.792C218.857 322.893 219.535 322.91 220.207 322.847V322.847Z" fill="#F47B56"/>
<path d="M241.207 334.487L235.812 331.552L237.224 323.849C237.224 323.849 245.26 324.611 245.967 327.46" fill="#003B94"/>
<path d="M243.242 334.373C244.456 333.627 245.727 332.963 246.983 332.3C250.105 330.593 254.61 328.829 256.531 325.626C256.925 324.979 257.111 324.227 257.066 323.471C257.02 322.714 256.745 321.99 256.277 321.394C253.451 317.981 247.266 323.595 244.103 319.815C243.481 319.067 243.185 307.2 243.185 307.2L231.154 310.447C231.154 310.447 229.105 334.373 229.331 335.786C229.555 337.197 233.694 338.607 233.694 338.607C234.927 338.346 236.103 337.869 237.169 337.197C238.425 336.28 237.281 325.091 238.891 326.657C240.502 328.224 241.207 334.347 241.207 334.347C241.881 334.439 242.566 334.448 243.242 334.373Z" fill="#F47B56"/>
<path d="M202.004 256.975L198.458 304.337C198.458 304.337 204.107 312.125 223.048 307.794L223.23 275.867L202.004 256.975ZM223.88 266.359C223.469 270.435 223.88 315.414 223.88 315.414C223.88 315.414 229.118 325.203 251.927 315.414L251.602 277.192" fill="#3E2928"/>
<path d="M200.239 272.62C201.791 273.695 202.329 268.177 203.952 269.123C209.861 272.551 216.132 275.314 222.651 277.361H222.791C222.946 277.286 223.116 277.242 223.288 277.233C223.461 277.225 223.633 277.251 223.796 277.31C223.958 277.369 224.107 277.461 224.233 277.579C224.359 277.697 224.46 277.839 224.53 277.997C228.556 279.197 232.653 280.138 236.803 280.819C242.124 281.665 246.531 277.727 251.995 277.462C251.995 256.552 252.096 197.041 243.185 184.343L216.817 175.484C216.69 177.656 204.022 192.328 204.334 210.22C204.685 230.381 202.059 249.398 201.607 255.705C201.536 256.778 200.294 271.479 200.239 272.62V272.62Z" fill="#3E2928"/>
<path d="M245.613 160.302L243.185 184.288C243.185 184.288 223.513 185.078 215.039 179.235V158.892" fill="#FF8F6F"/>
<path d="M270.624 144.515L268.62 147.251C269.688 145.025 270.631 142.74 271.443 140.408C272.009 138.815 269.452 138.179 268.887 139.774L268.591 140.592C268.837 139.746 269.068 138.894 269.283 138.039C269.33 137.869 269.342 137.692 269.32 137.518C269.297 137.344 269.24 137.176 269.151 137.024C269.063 136.872 268.944 136.739 268.804 136.634C268.663 136.528 268.502 136.452 268.332 136.41C268.161 136.367 267.984 136.359 267.81 136.386C267.636 136.414 267.469 136.475 267.32 136.568C267.17 136.66 267.041 136.782 266.939 136.925C266.837 137.069 266.765 137.231 266.727 137.403C266.173 139.617 265.509 141.803 264.736 143.951C265.168 142.044 265.479 140.112 265.669 138.166C265.838 136.488 263.197 136.558 263.041 138.166C262.821 140.382 262.426 142.576 261.855 144.726C261.854 143.968 261.783 143.213 261.642 142.468C261.623 142.281 261.564 142.1 261.47 141.937C261.375 141.775 261.247 141.634 261.093 141.525C261.022 141.229 260.937 140.936 260.839 140.647C260.739 140.352 260.538 140.101 260.271 139.938C260.004 139.776 259.689 139.713 259.38 139.76C259.071 139.807 258.789 139.962 258.583 140.196C258.376 140.431 258.26 140.73 258.253 141.042L258.083 150.919C257.605 151.944 256.984 152.894 256.235 153.743C257.504 154.62 258.731 155.563 259.906 156.564C260.955 157.448 261.954 158.391 262.9 159.385C263.748 158.332 264.562 157.259 265.344 156.169C265.44 156.086 265.525 155.991 265.596 155.886C267.949 152.408 270.379 148.983 272.885 145.614C273.931 144.458 271.627 143.175 270.624 144.515V144.515Z" fill="#FFB5A9"/>
<path d="M233.13 138.434C233.13 138.434 242.423 140.93 246.193 146.9C248.554 151.03 250.635 155.314 252.421 159.723L259.284 149.072C259.284 149.072 267.616 151.625 270.921 155.717C270.921 155.717 261.036 177.305 252.421 179.152C243.806 180.999 234.655 166.482 234.655 166.482C234.655 166.482 232.763 172.548 233.13 166.072" fill="#FF8F6F"/>
<path d="M239.033 161.502C236.332 159.307 234.293 156.406 233.143 153.122C232.027 149.326 233.426 145.996 234.723 142.468C236.13 138.972 236.952 135.268 237.154 131.505C237.268 127.811 236.844 124.112 236.59 120.431C236.554 120.273 236.554 120.11 236.59 119.952C235.347 115.788 232.805 112.263 227.79 111.84C214.813 110.738 214.077 125.102 214.178 130.942C214.275 136.784 214.898 140.733 210.591 143.175C206.283 145.614 203.174 152.02 207.284 157.198C211.394 162.375 207.708 160.487 204.968 165.085C202.23 169.685 202.935 175.427 208.555 177.502C214.176 179.575 240.302 175.681 242.704 173.268C243.556 172.296 243.997 171.031 243.934 169.74C243.347 166.494 241.607 163.568 239.033 161.502Z" fill="#007F68"/>
<path d="M251.8 43.0439C254 46.2068 255.271 49.921 255.471 53.7676C255.717 55.5287 255.288 57.3176 254.27 58.7762C253.837 59.252 253.257 59.57 252.623 59.68C251.989 59.7901 251.336 59.6859 250.768 59.3839C250.054 59.099 249.409 58.6652 248.876 58.1115C248.397 57.6628 247.987 57.1452 247.662 56.5757L247.323 55.9132C247.231 56.0865 247.117 56.2467 246.983 56.3915C246.647 56.6547 246.248 56.8236 245.826 56.8851C245.119 57.0167 244.39 56.9289 243.736 56.6328C242.175 55.9578 240.875 54.7935 240.034 53.3156C239.022 51.7111 238.456 49.8653 238.397 47.9692C238.188 46.4334 238.669 44.8846 239.709 43.735C240.157 43.3036 240.727 43.0208 241.342 42.925C241.956 42.8292 242.585 42.9251 243.143 43.1997C243.71 43.4256 244.23 43.7503 244.68 44.1606C245.066 44.4875 245.409 44.8626 245.699 45.2751L245.953 45.727V44.4699L248.777 45.5712L249.06 53.4999C249.08 54.0681 249.255 54.6188 249.567 55.0949C249.833 55.5534 250.239 55.9132 250.726 56.126C252.092 56.6613 252.722 55.4854 252.619 52.596C252.476 49.7363 251.531 46.9743 249.892 44.6257C248.418 42.2361 246.229 40.3708 243.635 39.2946C242.694 38.8168 241.631 38.6324 240.584 38.7654C239.537 38.8984 238.554 39.3426 237.762 40.0405C236.918 40.8871 236.276 41.9124 235.882 43.0407C235.488 44.1689 235.353 45.3712 235.488 46.5585C235.649 49.5834 236.625 52.5085 238.313 55.0247C239.656 57.5096 241.773 59.4902 244.342 60.6673C245.238 61.0403 246.197 61.2268 247.168 61.2158C247.798 61.2597 248.43 61.1434 249.003 60.8779L249.567 60.5686L251.277 63.7431L250.994 63.9406C250.726 64.0898 250.448 64.2236 250.16 64.3355C249.71 64.5307 249.236 64.6646 248.748 64.7304C248.125 64.8138 247.494 64.8138 246.871 64.7304C246.053 64.6326 245.25 64.4283 244.485 64.1227C242.31 63.1886 240.378 61.7704 238.836 59.9762C237.008 57.9575 235.529 55.6497 234.458 53.1467C233.385 50.7571 232.772 48.1873 232.649 45.5712C232.497 43.372 232.946 41.1728 233.948 39.209C234.781 37.5607 236.218 36.297 237.96 35.6812C239.785 35.0805 241.768 35.1806 243.523 35.9621C246.95 37.4091 249.842 39.8846 251.8 43.0461V43.0439ZM245.571 53.0765C246.035 52.4842 246.243 51.7338 246.151 50.9879C246.129 50.0681 245.871 49.1693 245.402 48.3772C245.019 47.6859 244.418 47.1406 243.692 46.8261C243.414 46.6834 243.099 46.6286 242.79 46.669C242.48 46.7093 242.19 46.843 241.958 47.0521C241.713 47.3289 241.531 47.6549 241.424 48.008C241.316 48.3611 241.286 48.7331 241.334 49.099C241.367 50.0292 241.644 50.9331 242.14 51.7229C242.546 52.4381 243.176 53.0041 243.934 53.331C244.476 53.6096 245.137 53.5065 245.571 53.0765V53.0765ZM418.545 195.815C420.748 198.975 422.02 202.69 422.216 206.536C422.462 208.297 422.034 210.086 421.017 211.545C420.583 212.019 420.003 212.336 419.369 212.446C418.735 212.556 418.082 212.453 417.513 212.152C416.801 211.863 416.157 211.43 415.621 210.88C415.144 210.429 414.735 209.912 414.407 209.344L414.069 208.682C413.973 208.853 413.858 209.013 413.728 209.16C413.395 209.423 412.995 209.597 412.571 209.654C411.871 209.794 411.144 209.711 410.494 209.414C408.932 208.736 407.633 207.567 406.795 206.084C405.773 204.478 405.202 202.627 405.142 200.724C404.924 199.189 405.405 197.635 406.457 196.49C406.902 196.061 407.469 195.779 408.08 195.683C408.692 195.587 409.318 195.682 409.873 195.955C410.439 196.179 410.962 196.503 411.412 196.914C411.798 197.247 412.139 197.627 412.431 198.044L412.699 198.493V197.238L415.522 198.324L415.805 206.253C415.829 206.821 416.005 207.372 416.312 207.848C416.578 208.309 416.984 208.668 417.472 208.879C418.883 209.414 419.463 208.243 419.377 205.351C419.234 202.487 418.29 199.721 416.653 197.366C415.179 194.985 412.997 193.125 410.411 192.048C409.47 191.569 408.408 191.384 407.361 191.514C406.314 191.645 405.33 192.086 404.536 192.78C403.696 193.637 403.061 194.671 402.677 195.807C402.293 196.943 402.17 198.15 402.318 199.34C402.476 202.365 403.452 205.291 405.142 207.806C406.538 210.233 408.678 212.147 411.245 213.267C412.139 213.64 413.098 213.831 414.069 213.831C414.699 213.868 415.329 213.752 415.904 213.491L416.468 213.181L418.179 216.356L417.893 216.553C417.627 216.705 417.349 216.836 417.061 216.948C416.608 217.135 416.134 217.268 415.649 217.343C415.021 217.426 414.385 217.426 413.757 217.343C412.943 217.24 412.146 217.031 411.386 216.722C409.212 215.792 407.28 214.378 405.737 212.589C403.908 210.565 402.428 208.252 401.357 205.744C400.284 203.355 399.671 200.786 399.55 198.171C399.397 195.976 399.846 193.78 400.85 191.822C401.684 190.171 403.119 188.903 404.861 188.279C406.691 187.685 408.677 187.787 410.437 188.564C413.825 190.086 416.657 192.619 418.545 195.815V195.815ZM412.317 205.845C412.784 205.255 412.997 204.505 412.909 203.756C412.885 202.835 412.622 201.936 412.148 201.146C411.771 200.454 411.175 199.908 410.453 199.595C410.176 199.45 409.861 199.392 409.551 199.43C409.241 199.468 408.95 199.6 408.716 199.807C408.468 200.082 408.283 200.407 408.173 200.76C408.063 201.113 408.031 201.486 408.079 201.852C408.112 202.778 408.391 203.68 408.885 204.463C409.291 205.182 409.921 205.753 410.679 206.086C410.942 206.224 411.243 206.274 411.537 206.231C411.831 206.187 412.104 206.052 412.317 205.845" fill="#F47B56"/>
<path style="mix-blend-mode:multiply" opacity="0.25" d="M137.11 255.973L89.3053 228.8L41.5139 256.03C41.5139 256.03 68.1078 272.62 91.9025 286.56C107.014 275.893 120.444 263.691 137.11 255.973V255.973Z" fill="url(#paint4_linear)"/>
<g filter="url(#filter0_d)">
<path d="M50.7744 179.63V238.722L96.8446 265.086L148.864 234.343V175.254" fill="black"/>
</g>
<path d="M50.7744 179.63V238.722L96.8446 265.086L148.864 234.343V175.254" fill="#FF9271"/>
<path d="M96.8446 205.996V265.088L148.865 234.346V175.254L96.8446 205.996Z" fill="#DF5C34"/>
<path d="M50.7744 179.63L104.228 149.184L148.862 175.254L96.8446 205.996L50.7744 179.63Z" fill="#F47B56"/>
<path d="M98.0675 162.746C103.488 162.381 108.899 163.572 113.664 166.18C116.393 167.783 117.884 169.457 118.095 171.204C118.306 172.948 117.405 174.466 115.282 175.745C114.275 176.367 113.165 176.805 112.004 177.039C111.052 177.265 110.072 177.366 109.093 177.336L108.024 177.252C108.125 177.491 108.191 177.741 108.222 177.998C108.188 178.605 107.994 179.193 107.66 179.701C107.102 180.644 106.307 181.425 105.354 181.965C103.132 183.284 100.584 183.957 97.9994 183.906C95.3245 183.979 92.6815 183.312 90.3613 181.98C88.168 180.686 87.0439 179.165 86.9583 177.421C86.9668 176.497 87.235 175.595 87.7323 174.816C88.2296 174.038 88.9359 173.415 89.7707 173.018C90.5722 172.518 91.445 172.143 92.3592 171.906C93.0876 171.696 93.8373 171.568 94.5942 171.526H95.3692L93.9619 170.682L97.9138 168.22L107.069 173.608C107.769 173.985 108.552 174.182 109.347 174.182C110.142 174.182 110.925 173.985 111.625 173.608C113.565 172.399 112.872 170.809 109.543 168.839C106.006 166.892 101.985 165.998 97.9555 166.263C93.6848 166.315 89.5069 167.516 85.8606 169.738C82.5432 171.811 80.8988 174.284 80.9251 177.153C80.9251 179.968 82.6815 182.471 86.0999 184.483C89.8322 186.567 94.0673 187.577 98.3353 187.397C102.586 187.467 106.773 186.356 110.43 184.189C111.695 183.439 112.83 182.489 113.789 181.374C114.433 180.694 114.913 179.876 115.197 178.983L115.394 178.097L120.611 178.391C120.62 178.551 120.62 178.711 120.611 178.871C120.516 179.301 120.389 179.725 120.231 180.137C120.005 180.795 119.704 181.432 119.331 182.022C118.795 182.82 118.174 183.557 117.476 184.216C116.554 185.104 115.544 185.887 114.452 186.552C111.313 188.435 107.835 189.687 104.215 190.238C100.269 190.926 96.2409 190.997 92.2736 190.448C88.6673 190.024 85.1818 188.886 82.0207 187.1C79.4694 185.75 77.4266 183.607 76.2004 180.995C75.6992 179.855 75.4404 178.624 75.4404 177.379C75.4404 176.135 75.6992 174.903 76.2004 173.764C77.4154 171.103 79.438 168.893 81.9811 167.446C86.8262 164.47 92.3813 162.847 98.0675 162.746V162.746ZM103.187 177.294C103.095 176.813 102.887 176.362 102.581 175.98C102.275 175.597 101.88 175.295 101.431 175.1C100.322 174.448 99.0597 174.103 97.7733 174.102C96.5785 174.056 95.3962 174.359 94.3703 174.973C93.5272 175.383 92.9849 176.23 92.9652 177.167C93.0925 178.143 93.7226 178.981 94.6228 179.376C95.7558 180.023 97.0439 180.349 98.3485 180.319C99.6027 180.351 100.841 180.029 101.921 179.391C102.739 179.018 103.26 178.193 103.244 177.294" fill="#3E2928"/>
<defs>
<filter id="filter0_d" x="0.774445" y="150.254" width="198.09" height="189.833" filterUnits="userSpaceOnUse" color-interpolation-filters="sRGB">
<feFlood flood-opacity="0" result="BackgroundImageFix"/>
<feColorMatrix in="SourceAlpha" type="matrix" values="0 0 0 0 0 0 0 0 0 0 0 0 0 0 0 0 0 0 127 0"/>
<feOffset dy="25"/>
<feGaussianBlur stdDeviation="25"/>
<feColorMatrix type="matrix" values="0 0 0 0 0.209139 0 0 0 0 0.0691446 0 0 0 0 0.478091 0 0 0 0.497159 0"/>
<feBlend mode="normal" in2="BackgroundImageFix" result="effect1_dropShadow"/>
<feBlend mode="normal" in="SourceGraphic" in2="effect1_dropShadow" result="shape"/>
</filter>
<linearGradient id="paint0_linear" x1="300.409" y1="224.374" x2="285.065" y2="245.178" gradientUnits="userSpaceOnUse">
<stop stop-color="#78B46A"/>
<stop offset="0.03" stop-color="#7F3500"/>
<stop offset="1" stop-color="white"/>
</linearGradient>
<linearGradient id="paint1_linear" x1="243.565" y1="315.085" x2="211.359" y2="350.416" gradientUnits="userSpaceOnUse">
<stop stop-color="#78B46A"/>
<stop offset="0.03" stop-color="#7F3500"/>
<stop offset="1" stop-color="white"/>
</linearGradient>
<linearGradient id="paint2_linear" x1="173.518" y1="166.928" x2="149.381" y2="193.412" gradientUnits="userSpaceOnUse">
<stop stop-color="#78B46A"/>
<stop offset="0.03" stop-color="#7F3500"/>
<stop offset="1" stop-color="white"/>
</linearGradient>
<linearGradient id="paint3_linear" x1="399.084" y1="167.226" x2="384.604" y2="156.661" gradientUnits="userSpaceOnUse">
<stop stop-color="white" stop-opacity="0"/>
<stop offset="0.99" stop-color="#DC841E"/>
</linearGradient>
<linearGradient id="paint4_linear" x1="120.078" y1="244.743" x2="87.4033" y2="280.589" gradientUnits="userSpaceOnUse">
<stop stop-color="#78B46A"/>
<stop offset="0.03" stop-color="#7F3500"/>
<stop offset="1" stop-color="white"/>
</linearGradient>
</defs>
</svg>
